<svg width="22" height="25" viewBox="0 0 22 25" fill="none" xmlns="http://www.w3.org/2000/svg">
<path fill-rule="evenodd" clip-rule="evenodd" d="M20.6525 9.68906H4.65878L20.0197 5.24063C20.1369 5.20781 20.24 5.12344 20.301 5.01562C20.3619 4.90781 20.376 4.77656 20.3385 4.65938L19.5369 1.88438C19.2135 0.773438 18.1822 0 17.0291 0C16.7853 0 16.5416 0.0328125 16.3072 0.103125L1.88377 4.27969C1.21346 4.47188 0.665023 4.91719 0.327522 5.53125C-0.00997789 6.14062 -0.0896655 6.84375 0.102522 7.51406L0.890023 10.2234V21.3937C0.890023 22.8328 2.0619 24.0047 3.49627 24.0047H7.4994H9.12597H12.876H14.8447H18.5057C19.9447 24.0047 21.1166 22.8328 21.1166 21.3937V10.1578C21.1213 9.9 20.9104 9.68906 20.6525 9.68906ZM16.9682 10.6266L14.976 14.0766H12.3838L14.376 10.6266H16.9682ZM13.2932 10.6266L11.301 14.0766H8.70878L10.701 10.6266H13.2932ZM9.62284 10.6266L7.63065 14.0766H5.03846L7.03065 10.6266H9.62284ZM5.94784 10.6266L3.95565 14.0766H1.82752V10.6266H5.94784ZM16.565 1.00312C16.715 0.960938 16.8697 0.9375 17.0244 0.9375C17.765 0.9375 18.426 1.43438 18.6322 2.14219L19.3072 4.46719L17.4275 5.01094C17.4088 4.9875 17.39 4.95937 17.3666 4.94063L14.0338 1.73906L16.565 1.00312ZM13.0025 2.03438C13.0213 2.05781 13.04 2.08594 13.0635 2.10469L16.3963 5.30625L13.8978 6.02813C13.8791 6.00469 13.8603 5.97656 13.8369 5.95781L10.5041 2.75625L13.0025 2.03438ZM9.47284 3.05625C9.49159 3.07969 9.51034 3.10781 9.53378 3.12656L12.8666 6.32812L10.3682 7.05C10.3494 7.02656 10.3307 6.99844 10.3072 6.97969L6.9744 3.77812L9.47284 3.05625ZM5.94784 4.07812C5.96659 4.10156 5.98534 4.12969 6.00878 4.14844L9.34159 7.35L6.84315 8.07656C6.8244 8.05313 6.80565 8.025 6.78221 8.00625L3.4494 4.80469L5.94784 4.07812ZM1.00252 7.25156C0.880648 6.825 0.93221 6.375 1.14784 5.98125C1.36346 5.5875 1.71971 5.30625 2.14627 5.17969L2.42284 5.1C2.44159 5.12344 2.46034 5.15156 2.48377 5.17031L5.81659 8.37188L1.67752 9.57187L1.00252 7.25156ZM20.1838 21.3891C20.1838 22.3125 19.4338 23.0625 18.5103 23.0625H14.8494H12.8807H9.13065H7.4994H3.49627C2.57752 23.0625 1.82752 22.3125 1.82752 21.3891V15.0141H4.22752H7.89784H11.5682H15.2385H20.1744V21.3891H20.1838ZM20.1838 14.0766H16.0588L18.051 10.6266H20.1838V14.0766Z" fill="#BABABA"/>
<path fill-rule="evenodd" clip-rule="evenodd" d="M14.0103 18.586L9.89001 16.2094C9.7447 16.125 9.56658 16.125 9.42126 16.2094C9.27595 16.2938 9.18689 16.4485 9.18689 16.6172V21.3703C9.18689 21.5391 9.27595 21.6938 9.42126 21.7781C9.49158 21.8203 9.57595 21.8391 9.65564 21.8391C9.73533 21.8391 9.8197 21.8203 9.89001 21.7781L14.0103 19.4016C14.1556 19.3172 14.2447 19.1625 14.2447 18.9938C14.2447 18.825 14.1556 18.6656 14.0103 18.586ZM10.1291 20.5547V17.4235L12.8431 18.9891L10.1291 20.5547Z" fill="#BABABA"/>
</svg>
