<svg width="24" height="25" viewBox="0 0 24 25" fill="none" xmlns="http://www.w3.org/2000/svg">
<path d="M20.4853 16.2261C19.1783 14.9155 17.6226 13.9453 15.9253 13.3579C17.7432 12.1024 18.9375 10.0012 18.9375 7.62518C18.9375 3.78929 15.8253 0.668518 12 0.668518C8.17467 0.668518 5.0625 3.78929 5.0625 7.62518C5.0625 10.0012 6.25683 12.1024 8.07478 13.3579C6.37744 13.9453 4.82175 14.9155 3.51473 16.2261C1.24823 18.4989 0 21.5206 0 24.7348H1.875C1.875 19.1364 6.41705 14.5818 12 14.5818C17.583 14.5818 22.125 19.1364 22.125 24.7348H24C24 21.5206 22.7518 18.4989 20.4853 16.2261ZM12 12.7017C9.20855 12.7017 6.9375 10.4244 6.9375 7.62518C6.9375 4.82597 9.20855 2.5487 12 2.5487C14.7915 2.5487 17.0625 4.82597 17.0625 7.62518C17.0625 10.4244 14.7915 12.7017 12 12.7017Z" fill="#AAAAAA"/>
</svg>
