<svg width="24" height="25" viewBox="0 0 24 25" fill="none" xmlns="http://www.w3.org/2000/svg">
<path d="M22.4042 13.0134C22.3076 12.8153 22.3076 12.5881 22.4042 12.39L23.2993 10.5538C23.7977 9.53138 23.4028 8.31279 22.4003 7.77944L20.5999 6.82149C20.4056 6.71818 20.2725 6.5343 20.2344 6.31718L19.8823 4.30404C19.6862 3.18318 18.6523 2.42998 17.5288 2.58937L15.5107 2.87563C15.2929 2.90646 15.0775 2.83624 14.9195 2.68296L13.4546 1.26193C12.639 0.470657 11.3611 0.47061 10.5455 1.26193L9.0806 2.6831C8.92254 2.83643 8.70715 2.90651 8.48937 2.87577L6.47127 2.58951C5.34745 2.43003 4.31386 3.18332 4.11778 4.30418L3.76566 6.31723C3.72764 6.53439 3.59447 6.71822 3.40027 6.82159L1.59981 7.77953C0.597346 8.31284 0.202472 9.53152 0.700845 10.5539L1.59592 12.3901C1.69248 12.5882 1.69248 12.8154 1.59592 13.0135L0.700798 14.8497C0.202426 15.8721 0.597298 17.0906 1.59976 17.624L3.40022 18.5819C3.59447 18.6853 3.72764 18.8691 3.76566 19.0863L4.11778 21.0994C4.29628 22.1198 5.16881 22.8354 6.1716 22.8353C6.27036 22.8353 6.37058 22.8283 6.47131 22.814L8.48941 22.5278C8.70705 22.4968 8.92258 22.5672 9.08064 22.7204L10.5455 24.1415C10.9534 24.5371 11.4766 24.7349 12.0001 24.7349C12.5233 24.7348 13.0469 24.5371 13.4546 24.1415L14.9195 22.7204C15.0776 22.5672 15.293 22.4971 15.5107 22.5278L17.5288 22.814C18.6528 22.9735 19.6862 22.2202 19.8823 21.0994L20.2345 19.0863C20.2725 18.8691 20.4057 18.6853 20.5999 18.5819L22.4003 17.624C23.4028 17.0907 23.7977 15.872 23.2993 14.8496L22.4042 13.0134ZM21.7515 16.3978L19.9511 17.3557C19.3771 17.6612 18.9834 18.2045 18.8711 18.8464L18.519 20.8595C18.4526 21.2387 18.103 21.4934 17.7227 21.4396L15.7046 21.1534C15.061 21.0619 14.4242 21.2696 13.9571 21.7227L12.4921 23.1437C12.2162 23.4113 11.7839 23.4113 11.5079 23.1437L10.043 21.7227C9.64825 21.3397 9.13216 21.1322 8.59338 21.1322C8.49466 21.1322 8.39515 21.1392 8.29549 21.1533L6.27739 21.4396C5.89743 21.4934 5.54751 21.2387 5.48113 20.8594L5.12896 18.8463C5.01665 18.2044 4.623 17.6611 4.04892 17.3557L2.24846 16.3978C1.90928 16.2173 1.77568 15.805 1.94429 15.4591L2.83941 13.6229C3.12479 13.0374 3.12479 12.3659 2.83941 11.7804L1.94429 9.94422C1.77568 9.59831 1.90928 9.18604 2.24846 9.00559L4.04892 8.04764C4.62295 7.74216 5.01665 7.19889 5.12892 6.557L5.48104 4.5439C5.54741 4.16467 5.89701 3.90991 6.2773 3.96378L8.2954 4.25003C8.93875 4.34136 9.57583 4.13374 10.0429 3.68067L11.5079 2.25964C11.7838 1.992 12.2161 1.992 12.4921 2.25964L13.957 3.68067C14.4241 4.13379 15.0611 4.34136 15.7045 4.25003L17.7226 3.96378C18.1026 3.90986 18.4525 4.16467 18.5189 4.5439L18.871 6.55705C18.9833 7.19894 19.377 7.74226 19.951 8.04764L21.7515 9.00559C22.0907 9.18604 22.2243 9.59831 22.0557 9.94422L21.1605 11.7804C20.8752 12.3658 20.8752 13.0374 21.1605 13.6229L22.0557 15.459C22.2243 15.805 22.0907 16.2174 21.7515 16.3978Z" fill="#D71921"/>
<path d="M17.0571 7.6114C16.7869 7.34112 16.3486 7.34112 16.0783 7.6114L6.94294 16.7468C6.67266 17.0171 6.67266 17.4553 6.94294 17.7256C7.07808 17.8607 7.25522 17.9283 7.43232 17.9283C7.60941 17.9283 7.7866 17.8608 7.92169 17.7256L17.0571 8.59024C17.3274 8.31991 17.3274 7.88173 17.0571 7.6114Z" fill="#D71921"/>
<path d="M9.2316 6.45551C7.83229 6.45551 6.69385 7.5971 6.69385 9.00027C6.69385 10.4034 7.83229 11.545 9.2316 11.545C10.6309 11.545 11.7693 10.4034 11.7693 9.00027C11.7693 7.5971 10.6309 6.45551 9.2316 6.45551ZM9.2316 10.1569C8.59555 10.1569 8.0781 9.63807 8.0781 9.00022C8.0781 8.36242 8.59555 7.84354 9.2316 7.84354C9.86764 7.84354 10.3851 8.36242 10.3851 9.00022C10.3851 9.63807 9.86764 10.1569 9.2316 10.1569Z" fill="#D71921"/>
<path d="M14.7685 13.8583C13.3692 13.8583 12.2307 14.9999 12.2307 16.4031C12.2307 17.8063 13.3692 18.9479 14.7685 18.9479C16.1678 18.9479 17.3062 17.8063 17.3062 16.4031C17.3062 14.9999 16.1678 13.8583 14.7685 13.8583ZM14.7685 17.5598C14.1324 17.5598 13.6149 17.0409 13.6149 16.4031C13.6149 15.7653 14.1324 15.2464 14.7685 15.2464C15.4045 15.2464 15.922 15.7653 15.922 16.4031C15.922 17.0409 15.4045 17.5598 14.7685 17.5598Z" fill="#D71921"/>
</svg>
