<svg width="18" height="18" viewBox="0 0 18 18" fill="none" xmlns="http://www.w3.org/2000/svg">
<path d="M1.40626 2.96362H15.4688C16.2422 2.96362 16.875 3.59643 16.875 4.36989V6.0574C16.875 6.83086 16.2422 7.46367 15.4688 7.46367H1.40626C0.63281 7.4636 0 6.83079 0 6.05737V4.36985C0 3.59643 0.63281 2.96362 1.40626 2.96362Z" fill="#A86A3F"/>
<path d="M4.48594 4.46816L13.2891 2.1338C13.5844 2.04942 13.8938 2.23224 13.9781 2.52756L15.4406 7.92756C15.525 8.22288 15.3422 8.53223 15.0469 8.61661L3.58595 11.6681C3.29063 11.7525 2.98127 11.5697 2.8969 11.2744L1.82812 7.30878L4.48594 4.46816Z" fill="#3DB39E"/>
<path d="M13.9079 7.75891L12.0095 8.26514C11.8548 8.30735 11.7001 8.22294 11.672 8.06826C11.6298 7.91359 11.7142 7.75888 11.8689 7.73078L13.5001 7.29485L12.6283 4.03237L10.997 4.4683C10.8424 4.5105 10.6877 4.42609 10.6596 4.27142C10.6173 4.11674 10.7018 3.96203 10.8564 3.93393L12.7549 3.4277C12.9095 3.38549 13.0642 3.4699 13.0923 3.62458L14.1049 7.42142C14.147 7.5761 14.0626 7.73078 13.9079 7.75891ZM6.03293 9.88235L4.1345 10.3886C3.97982 10.4308 3.82511 10.3464 3.79701 10.1917L2.78451 6.39486C2.74231 6.24018 2.82671 6.08547 2.98139 6.05737L4.87982 5.55114C5.0345 5.50893 5.18921 5.59334 5.21731 5.74802C5.25951 5.90269 5.1751 6.0574 5.02043 6.0855L3.38918 6.52143L4.26104 9.78391L5.89229 9.34798C6.04696 9.30578 6.20168 9.39019 6.22978 9.54486C6.27198 9.68547 6.18761 9.84015 6.03293 9.88235Z" fill="#78CABB"/>
<path d="M0.112492 6.43693C2.6156 5.00253 9.36563 1.05096 9.36563 1.05096C9.63281 0.896285 9.98437 0.980657 10.1391 1.24784L12.9516 6.08534C13.1062 6.35252 13.0078 6.69001 12.7406 6.84473L2.44685 12.751C2.17967 12.9056 1.82811 12.8213 1.6734 12.5541C1.6734 12.5541 0.885911 10.951 0.0983887 9.60095C0.0984244 6.43693 0.112492 7.47754 0.112492 6.43693Z" fill="#5ABEAC"/>
<path d="M11.5171 5.93072L9.54837 2.52759C9.464 2.38698 9.29526 2.34478 9.16868 2.42915L7.46713 3.41352C7.32652 3.49789 7.28432 3.66663 7.36869 3.79321C7.45306 3.93382 7.62181 3.97602 7.74838 3.89165L9.21089 3.04789L10.8984 5.97289L9.4359 6.81665C9.29529 6.90102 9.25309 7.06977 9.33746 7.19634C9.42183 7.33695 9.59058 7.37916 9.71715 7.29478L11.4187 6.31042C11.5452 6.24011 11.6015 6.07137 11.5171 5.93072ZM4.064 9.91043L2.6015 10.7542L0.913981 7.82915L2.37648 6.9854C2.51709 6.90102 2.55929 6.73228 2.47492 6.6057C2.39055 6.46509 2.2218 6.42289 2.09523 6.50726L0.393679 7.49163C0.253071 7.576 0.210867 7.74475 0.295239 7.87132L2.26397 11.2745C2.34835 11.4151 2.51709 11.4573 2.64367 11.3729L4.34522 10.3885C4.48582 10.3042 4.52803 10.1354 4.44366 10.0088C4.37335 9.8823 4.20461 9.82602 4.064 9.91043ZM4.78118 4.94636C3.69837 5.5651 3.33275 6.94323 3.95149 8.02603C4.5843 9.10884 5.94836 9.47447 7.03117 8.85572C8.11397 8.23698 8.4796 6.85885 7.86086 5.77605C7.22805 4.70727 5.86399 4.32762 4.78118 4.94636ZM11.5171 5.93072L9.54837 2.52759C9.464 2.38698 9.29526 2.34478 9.16868 2.42915L7.46713 3.41352C7.32652 3.49789 7.28432 3.66663 7.36869 3.79321C7.45306 3.93382 7.62181 3.97602 7.74838 3.89165L9.21089 3.04789L10.8984 5.97289L9.4359 6.81665C9.29529 6.90102 9.25309 7.06977 9.33746 7.19634C9.42183 7.33695 9.59058 7.37916 9.71715 7.29478L11.4187 6.31042C11.5452 6.24011 11.6015 6.07137 11.5171 5.93072ZM4.064 9.91043L2.6015 10.7542L0.913981 7.82915L2.37648 6.9854C2.51709 6.90102 2.55929 6.73228 2.47492 6.6057C2.39055 6.46509 2.2218 6.42289 2.09523 6.50726L0.393679 7.49163C0.253071 7.576 0.210867 7.74475 0.295239 7.87132L2.26397 11.2745C2.34835 11.4151 2.51709 11.4573 2.64367 11.3729L4.34522 10.3885C4.48582 10.3042 4.52803 10.1354 4.44366 10.0088C4.37335 9.8823 4.20461 9.82602 4.064 9.91043ZM4.78118 4.94636C3.69837 5.5651 3.33275 6.94323 3.95149 8.02603C4.5843 9.10884 5.94836 9.47447 7.03117 8.85572C8.11397 8.23698 8.4796 6.85885 7.86086 5.77605C7.22805 4.70727 5.86399 4.32762 4.78118 4.94636Z" fill="#8CD2C5"/>
<path d="M16.0313 17.026H1.40626C0.63281 17.026 0 16.3932 0 15.6198V5.49476H16.0313C16.8047 5.49476 17.4375 6.12757 17.4375 6.90103V15.6198C17.4375 16.3932 16.8047 17.026 16.0313 17.026ZM1.12501 5.49476H0V4.36975C0 4.98849 0.506234 5.49476 1.12501 5.49476Z" fill="#C47E4D"/>
<path d="M17.4375 13.5103H15.1875C14.1047 13.5103 13.2188 12.6244 13.2188 11.5416C13.2188 10.4588 14.1047 9.57288 15.1875 9.57288H17.4375C17.7469 9.57288 18 9.82599 18 10.1354V12.9479C18 13.2572 17.7469 13.5103 17.4375 13.5103Z" fill="#A86A3F"/>
<path d="M15.1875 10.4166C15.8063 10.4166 16.3125 10.9229 16.3125 11.5416C16.3125 12.1604 15.8063 12.6666 15.1875 12.6666C14.5688 12.6666 14.0625 12.1604 14.0625 11.5416C14.0625 10.9229 14.5688 10.4166 15.1875 10.4166Z" fill="#EFC75E"/>
<path d="M15.4688 12.3854C14.85 12.3854 14.3438 11.8792 14.3438 11.2604C14.3438 11.0214 14.4141 10.7963 14.5406 10.6135C14.2453 10.8104 14.0625 11.1479 14.0625 11.5417C14.0625 12.1604 14.5687 12.6667 15.1875 12.6667C15.5672 12.6667 15.9047 12.4698 16.1156 12.1885C15.9328 12.3151 15.7078 12.3854 15.4688 12.3854Z" fill="#D7B354"/>
<path d="M16.0313 16.4635H1.40626C0.63281 16.4635 0 15.8307 0 15.0573V15.6198C0 16.3932 0.63281 17.026 1.40626 17.026H16.0313C16.8047 17.026 17.4375 16.3932 17.4375 15.6198V15.0573C17.4375 15.8307 16.8047 16.4635 16.0313 16.4635Z" fill="#B27245"/>
<path d="M16.0313 5.49476H1.12501C0.506234 5.49476 0 4.98849 0 4.36975V4.93226C0 5.551 0.506234 6.05727 1.12501 6.05727H16.0313C16.8047 6.05727 17.4375 6.69008 17.4375 7.46353V6.90103C17.4375 6.12757 16.8047 5.49476 16.0313 5.49476Z" fill="#CA8B5F"/>
</svg>
