<svg width="31" height="12" viewBox="0 0 31 12" fill="none" xmlns="http://www.w3.org/2000/svg">
<path d="M13.1714 5.05911C13.1714 3.74821 13.1714 2.37489 13.1714 1.06399C13.1714 0.8143 13.2338 0.689453 13.5459 0.689453C14.4199 0.689453 15.2938 0.689453 16.2301 0.689453C17.6659 0.689453 18.8519 1.81308 18.9144 3.12397C18.9144 4.62214 17.8532 5.74577 16.355 5.80819C15.7932 5.80819 15.2314 5.80819 14.6696 5.80819C14.4199 5.80819 14.3574 5.87061 14.3574 6.12031C14.3574 7.05666 14.3574 7.99302 14.3574 8.92937C14.3574 9.24149 14.295 9.30391 13.9829 9.30391C13.2338 9.30391 13.2338 9.30391 13.2338 8.55483C13.1714 7.4312 13.1714 6.24516 13.1714 5.05911ZM14.2326 3.24882C14.2326 3.68579 14.2326 4.12275 14.2326 4.49729C14.2326 4.74699 14.295 4.80941 14.5447 4.80941C15.0441 4.80941 15.6059 4.80941 16.1053 4.80941C16.9792 4.80941 17.6659 4.18518 17.6659 3.31125C17.6659 2.49974 17.0417 1.81308 16.1677 1.75065C15.6059 1.68823 15.0441 1.75065 14.4823 1.75065C14.2326 1.75065 14.2326 1.8755 14.2326 2.06277C14.2326 2.43731 14.2326 2.81186 14.2326 3.24882Z" fill="#616368"/>
<path d="M22.9719 8.55493C21.9731 9.61613 20.9119 9.8034 19.9131 9.24159C19.164 8.80462 18.7895 8.18039 18.8519 7.30646C18.9143 6.49495 19.4137 5.93314 20.1628 5.68344C20.9743 5.43375 21.8483 5.37132 22.6598 5.68344C23.0967 5.80829 23.0343 5.68344 22.9719 5.37132C22.847 4.80951 22.5349 4.49739 22.0355 4.31012C21.4113 4.12285 20.8495 4.18528 20.3501 4.62224C20.2252 4.74709 20.1628 4.99678 19.9756 4.93436C19.6634 4.80951 19.4137 4.62224 19.164 4.43497C19.0392 4.31012 19.2265 4.2477 19.2889 4.18528C19.9756 3.31134 20.9743 3.12407 22.0355 3.31134C23.4088 3.56104 24.0331 4.37255 24.0955 5.74587C24.0955 6.86949 24.0955 7.93069 24.0955 9.05432C24.0955 9.36644 24.0331 9.42886 23.721 9.42886C23.0343 9.36644 23.0343 9.36644 22.9719 8.55493ZM21.5361 6.3701C21.224 6.43253 20.9119 6.43253 20.5998 6.55737C20.2252 6.74464 19.9131 7.05676 19.9756 7.55615C19.9756 7.99312 20.2877 8.30523 20.7246 8.43008C21.661 8.7422 22.847 7.99312 22.9719 7.05676C23.0343 6.80707 22.9095 6.68222 22.7222 6.6198C22.3476 6.43253 21.9731 6.43253 21.5361 6.3701Z" fill="#616368"/>
<path d="M27.2168 7.68092C27.7162 6.49487 28.2156 5.30882 28.6525 4.06035C28.8398 3.56096 29.0271 3.31126 29.5889 3.43611C29.7137 3.43611 29.901 3.43611 30.0259 3.43611C30.0883 3.62338 29.9634 3.68581 29.901 3.81065C28.7774 6.37002 27.6538 8.92939 26.5926 11.4888C26.4053 11.8633 26.2804 12.0506 25.8435 11.9881C25.6562 11.9881 25.4689 11.9881 25.2192 11.9881C25.6562 11.1142 25.9683 10.2403 26.4053 9.42878C26.5926 9.11666 26.5301 8.86697 26.4053 8.55485C25.7186 6.99426 25.032 5.43367 24.3453 3.87308C24.158 3.49854 24.2829 3.43611 24.595 3.43611C25.3441 3.43611 25.3441 3.43611 25.6562 4.12277C26.0932 5.18397 26.5301 6.18275 26.9671 7.24395C27.092 7.3688 27.092 7.49365 27.2168 7.68092Z" fill="#616368"/>
<path d="M0.561768 2.74947C1.31085 1.18888 2.55932 0.314953 4.24476 0.0652581C5.55566 -0.122013 6.86655 0.0652582 7.99018 1.00161C8.23987 1.18888 8.36472 1.37615 8.0526 1.62585C7.92776 1.68827 7.86533 1.81312 7.80291 1.87554C7.55321 2.12524 7.36594 2.43736 7.05382 2.62463C6.67928 2.8119 6.49201 2.37493 6.17989 2.25008C4.74415 1.62585 3.12114 2.18766 2.43448 3.49856C2.30963 3.68583 2.24721 3.81068 2.18478 3.99795C1.62297 3.56098 1.06116 3.18644 0.561768 2.74947Z" fill="#E94335"/>
<path d="M8.23987 8.74217C6.80413 10.1779 4.05749 10.3652 2.24721 9.11671C1.49812 8.61732 0.936309 7.99308 0.561768 7.18158C1.12358 6.74461 1.62297 6.37007 2.18478 5.93311C2.62175 6.93188 3.30841 7.68097 4.43203 7.93066C5.24354 8.11793 5.99262 7.93066 6.67928 7.55612C7.2411 7.93066 7.74048 8.3052 8.23987 8.74217Z" fill="#35A854"/>
<path d="M8.23996 8.74207C7.74057 8.30511 7.17876 7.93057 6.67937 7.4936C7.05391 7.18148 7.42846 6.80694 7.5533 6.30755C7.61573 6.05786 7.5533 5.99544 7.30361 5.99544C6.61695 5.99544 5.93029 5.99544 5.30605 5.99544C5.05636 5.99544 4.93151 5.93301 4.99394 5.62089C4.99394 5.18393 4.99394 4.74696 4.99394 4.37242C4.99394 4.18515 4.99393 4.0603 5.24363 4.0603C6.61695 4.0603 8.05269 4.0603 9.42601 4.0603C9.61328 4.0603 9.67571 4.12273 9.73813 4.31C9.86298 5.99544 9.55086 7.55603 8.23996 8.74207Z" fill="#4586F4"/>
<path d="M2.18483 5.93312C1.62301 6.37008 1.12363 6.74462 0.561813 7.18159C-0.187271 5.68342 -0.187271 4.18526 0.561813 2.74951C1.12363 3.18648 1.62301 3.56102 2.18483 3.99798C1.99756 4.62222 1.99756 5.30888 2.18483 5.93312Z" fill="#FABB05"/>
</svg>
