<svg width="24" height="22" viewBox="0 0 24 22" fill="none" xmlns="http://www.w3.org/2000/svg">
<path d="M9.35726 20.7024C9.67047 21.0184 10.062 21.1765 10.4535 21.1765C10.845 21.1765 11.2365 21.0184 11.5498 20.7024C12.1762 20.0702 12.1762 19.0825 11.5498 18.4504L5.36378 12.1686H22.4339C23.2953 12.1686 24 11.4574 24 10.5882C24 9.71905 23.2953 9.0079 22.4339 9.0079H5.36378L11.5889 2.72608C12.2153 2.09394 12.2153 1.10623 11.5889 0.4741C10.9625 -0.158033 9.98369 -0.158033 9.35726 0.4741L0.469821 9.482C-0.156607 10.1141 -0.156607 11.1018 0.469821 11.734L9.35726 20.7024Z" fill="white"/>
</svg>
