<svg width="20" height="20" viewBox="0 0 20 20" fill="none" xmlns="http://www.w3.org/2000/svg">
<path d="M14.1856 1.72223C16.9016 1.72223 19.1111 3.93179 19.1111 6.64801C19.1111 7.99179 18.5787 9.24779 17.6118 10.1847L17.6056 10.1909L17.5993 10.1971L10.0016 17.8567C8.37578 16.2085 4.05844 11.8356 2.39467 10.1909C1.42356 9.23112 0.888889 7.9729 0.888889 6.64801C0.888889 3.93201 3.09867 1.72223 5.81467 1.72223C7.15844 1.72223 8.41444 2.25468 9.35156 3.22157L9.98 3.87001L9.99644 3.85357L10.0167 3.87401L10.6487 3.22201C11.5856 2.2549 12.8416 1.72223 14.1856 1.72223ZM14.1856 0.833344C12.5467 0.833344 11.0671 1.51245 10.01 2.60334L9.99978 2.59312L9.98978 2.60312C8.93267 1.51245 7.45333 0.833566 5.81467 0.833566C2.60333 0.833344 0 3.43645 0 6.64801C0 8.2869 0.689555 9.75534 1.76978 10.8231C3.84778 12.8771 9.99978 19.1209 9.99978 19.1209L18.2302 10.8231C19.3209 9.76623 20 8.28668 20 6.64801C20 3.43645 17.3967 0.833344 14.1856 0.833344Z" fill="#AAAAAA"/>
</svg>
