<svg width="121" height="120" viewBox="0 0 121 120" fill="none" xmlns="http://www.w3.org/2000/svg">
<path d="M111.152 45.7396L112.796 29.9947L98.33 23.5578C97.8574 23.348 97.4796 22.9701 97.2698 22.4985L90.8349 8.03286L75.087 9.67875C74.5757 9.72967 74.0634 9.59116 73.6478 9.2907L60.828 0L48.0083 9.2907C47.5917 9.59116 47.0794 9.72967 46.5691 9.67875L30.8201 8.03286L24.3853 22.4985C24.1765 22.9701 23.7986 23.348 23.3261 23.5557L8.86039 29.9947L10.5042 45.7396C10.5572 46.2508 10.4197 46.7642 10.1182 47.1807L0.82753 60.0005L10.1182 72.8203C10.4197 73.2369 10.5572 73.7502 10.5042 74.2615L8.86039 90.0053L23.3261 96.4422C23.7976 96.652 24.1755 97.0299 24.3853 97.5025L30.8201 111.968L46.5691 110.322C46.6394 110.322 46.7127 110.311 46.7769 110.311C47.2169 110.311 47.6446 110.451 48.0001 110.71L60.828 120L73.6478 110.71C74.0634 110.408 74.5757 110.269 75.087 110.322L90.8349 111.968L97.2698 97.5025C97.4796 97.0299 97.8574 96.6531 98.33 96.4443L112.796 90.0053L111.152 74.2615C111.098 73.7502 111.235 73.2369 111.538 72.8203L120.828 60.0005L111.538 47.1807C111.235 46.7642 111.098 46.2508 111.152 45.7396ZM91.0875 45.2048L49.7876 86.5058C48.9728 87.3196 47.6528 87.3196 46.838 86.5058L29.1284 68.7962C28.7363 68.4051 28.5163 67.8735 28.5163 67.3194C28.5163 66.7653 28.7363 66.2337 29.1284 65.8426L35.0316 59.9608C35.8454 59.149 37.1633 59.149 37.9771 59.9608L48.3128 70.2751L82.2347 36.3531C83.0495 35.5383 84.3695 35.5383 85.1843 36.3531L91.0875 42.2553C91.9023 43.0701 91.9023 44.3911 91.0875 45.2048Z" fill="#D71921"/>
</svg>
