<svg width="16" height="20" viewBox="0 0 16 20" fill="none" xmlns="http://www.w3.org/2000/svg">
<path d="M8.80318 18.2185C9.62041 17.4077 10.4378 16.511 11.1997 15.5551C12.9608 13.3457 14.1537 11.1663 14.5218 9.1592C14.6001 8.73232 14.6399 8.31669 14.6399 7.91304C14.6399 4.04391 11.6521 0.869565 8.00473 0.869565C4.35731 0.869565 1.36957 4.04391 1.36957 7.91304C1.36957 8.31669 1.40938 8.73232 1.48767 9.1592C1.85576 11.1663 3.04861 13.3457 4.80974 15.5551C5.5717 16.511 6.38905 17.4077 7.20627 18.2185C7.49209 18.5021 7.75725 18.7545 7.99482 18.9724C8.2522 18.7545 8.51736 18.5021 8.80318 18.2185ZM15.5095 7.91304C15.5095 8.37077 15.4646 8.83874 15.3771 9.31605C14.9783 11.4906 13.7221 13.7857 11.8797 16.0971C11.0951 17.0814 10.2554 18.0026 9.41563 18.8358C9.12149 19.1276 8.84812 19.3878 8.6024 19.6132C8.45396 19.7494 8.347 19.8443 8.2884 19.8947C8.12534 20.0351 7.88411 20.0351 7.72105 19.8947C7.66245 19.8443 7.55549 19.7494 7.40706 19.6132C7.16133 19.3878 6.88796 19.1276 6.59382 18.8358C5.75403 18.0026 4.91436 17.0814 4.12977 16.0971C2.28739 13.7857 1.03116 11.4906 0.632369 9.31605C0.544832 8.83874 0.5 8.37077 0.5 7.91304C0.5 3.57504 3.86489 0 8.00473 0C12.1446 0 15.5095 3.57504 15.5095 7.91304ZM8.00473 11.2665C5.92713 11.2665 4.24291 9.58232 4.24291 7.50473C4.24291 5.42713 5.92713 3.74291 8.00473 3.74291C10.0823 3.74291 11.7665 5.42713 11.7665 7.50473C11.7665 9.58232 10.0823 11.2665 8.00473 11.2665ZM8.00473 10.397C9.60207 10.397 10.897 9.10207 10.897 7.50473C10.897 5.90738 9.60207 4.61248 8.00473 4.61248C6.40738 4.61248 5.11248 5.90738 5.11248 7.50473C5.11248 9.10207 6.40738 10.397 8.00473 10.397Z" fill="#AAAAAA"/>
</svg>
