<svg width="209" height="150" viewBox="0 0 209 150" fill="none" xmlns="http://www.w3.org/2000/svg">
<path d="M150.184 61.6003L151.679 47.2824L138.524 41.4288C138.095 41.2381 137.751 40.8944 137.56 40.4656L131.708 27.311L117.388 28.8077C116.923 28.854 116.457 28.728 116.079 28.4548L104.421 20.0061L92.7632 28.4548C92.3843 28.728 91.9185 28.854 91.4545 28.8077L77.1328 27.311L71.2811 40.4656C71.0913 40.8944 70.7477 41.2381 70.3179 41.427L57.1632 47.2824L58.6581 61.6003C58.7063 62.0653 58.5812 62.5321 58.3071 62.9109L49.8584 74.5688L58.3071 86.2267C58.5812 86.6056 58.7063 87.0723 58.6581 87.5373L57.1632 101.854L70.3179 107.708C70.7467 107.899 71.0903 108.242 71.2811 108.672L77.1328 121.827L91.4545 120.33C91.5184 120.33 91.585 120.32 91.6434 120.32C92.0435 120.32 92.4325 120.447 92.7557 120.683L104.421 129.131L116.079 120.683C116.457 120.408 116.923 120.282 117.388 120.33L131.708 121.827L137.56 108.672C137.751 108.242 138.095 107.9 138.524 107.71L151.679 101.854L150.184 87.5373C150.135 87.0723 150.26 86.6056 150.535 86.2267L158.983 74.5688L150.535 62.9109C150.26 62.5321 150.135 62.0653 150.184 61.6003ZM131.938 61.1141L94.3812 98.6719C93.6403 99.412 92.4399 99.412 91.699 98.6719L75.5944 82.5674C75.2378 82.2117 75.0378 81.7282 75.0378 81.2244C75.0378 80.7205 75.2378 80.2371 75.5944 79.8814L80.9626 74.5327C81.7026 73.7945 82.9011 73.7945 83.6411 74.5327L93.0401 83.9122L123.888 53.0646C124.629 52.3236 125.829 52.3236 126.57 53.0646L131.938 58.4318C132.679 59.1728 132.679 60.374 131.938 61.1141Z" fill="#D71921"/>
<circle cx="23.2698" cy="33.1713" r="7.27496" fill="#D71921" fill-opacity="0.16"/>
<circle cx="200.736" cy="110.098" r="7.27496" fill="#D71921" fill-opacity="0.16"/>
<circle cx="151.547" cy="145.453" r="4.54685" fill="#D71921" fill-opacity="0.16"/>
<circle cx="77.666" cy="4.54685" r="4.54685" fill="#D71921" fill-opacity="0.16"/>
<circle cx="177.567" cy="16.0963" r="10.0031" fill="#D71921" fill-opacity="0.16"/>
<circle cx="10.0031" cy="112.827" r="10.0031" fill="#D71921" fill-opacity="0.16"/>
</svg>
