<svg width="21" height="24" viewBox="0 0 21 24" fill="none" xmlns="http://www.w3.org/2000/svg">
<path fill-rule="evenodd" clip-rule="evenodd" d="M8.50909 2.86551C5.12137 3.73704 2.61818 6.81109 2.61818 10.4724V15.7083C2.61818 16.1907 2.22621 16.5818 1.74636 16.5818C0.781874 16.5818 0 17.3652 0 18.3273C0 19.2913 0.782859 20.0727 1.74977 20.0727H19.1957C20.1621 20.0727 20.9455 19.2893 20.9455 18.3273C20.9455 17.3633 20.1599 16.5818 19.1991 16.5818C18.7176 16.5818 18.3273 16.1938 18.3273 15.7083V10.4724C18.3273 6.81253 15.8246 3.73733 12.4364 2.86554V1.96401C12.4364 0.876763 11.5572 0 10.4727 0C9.39045 0 8.50909 0.879317 8.50909 1.96401V2.86551ZM7.41818 20.9455H13.5273C13.5273 22.6324 12.1597 24 10.4727 24C8.78575 24 7.41818 22.6324 7.41818 20.9455Z" fill="#D71921"/>
</svg>
