<svg width="110" height="110" viewBox="0 0 110 110" fill="none" xmlns="http://www.w3.org/2000/svg">
<path d="M101.184 41.6003L102.679 27.2824L89.5243 21.4288C89.0945 21.2381 88.7509 20.8944 88.5601 20.4656L82.7085 7.31095L68.3877 8.80767C67.9228 8.85398 67.4569 8.72802 67.079 8.4548L55.4211 0.00610352L43.7632 8.4548C43.3843 8.72802 42.9185 8.85398 42.4545 8.80767L28.1328 7.31095L22.2811 20.4656C22.0913 20.8944 21.7477 21.2381 21.3179 21.427L8.16325 27.2824L9.65812 41.6003C9.70628 42.0653 9.58124 42.5321 9.30709 42.9109L0.858398 54.5688L9.30709 66.2267C9.58124 66.6056 9.70628 67.0723 9.65812 67.5373L8.16325 81.8543L21.3179 87.7078C21.7467 87.8986 22.0903 88.2422 22.2811 88.672L28.1328 101.827L42.4545 100.33C42.5184 100.33 42.585 100.32 42.6434 100.32C43.0435 100.32 43.4325 100.447 43.7557 100.683L55.4211 109.131L67.079 100.683C67.4569 100.408 67.9228 100.282 68.3877 100.33L82.7085 101.827L88.5601 88.672C88.7509 88.2422 89.0945 87.8996 89.5243 87.7097L102.679 81.8543L101.184 67.5373C101.135 67.0723 101.26 66.6056 101.535 66.2267L109.983 54.5688L101.535 42.9109C101.26 42.5321 101.135 42.0653 101.184 41.6003ZM82.9382 41.1141L45.3812 78.6719C44.6403 79.412 43.4399 79.412 42.699 78.6719L26.5944 62.5674C26.2378 62.2117 26.0378 61.7282 26.0378 61.2244C26.0378 60.7205 26.2378 60.2371 26.5944 59.8814L31.9626 54.5327C32.7026 53.7945 33.9011 53.7945 34.6411 54.5327L44.0401 63.9122L74.8877 33.0646C75.6287 32.3236 76.829 32.3236 77.57 33.0646L82.9382 38.4318C83.6791 39.1728 83.6791 40.374 82.9382 41.1141Z" fill="#D71921"/>
</svg>
