<svg width="11" height="14" viewBox="0 0 11 14" fill="none" xmlns="http://www.w3.org/2000/svg">
<path d="M3.4162 14H1.37043C1.29146 14 1.22757 13.9361 1.22757 13.8571V2.2H0.476171C0.418414 2.2 0.366237 2.16512 0.344195 2.11183C0.322152 2.05839 0.334429 1.99687 0.375166 1.95599L2.29231 0.0416436C2.34811 -0.0138812 2.43851 -0.0138812 2.49432 0.0416436L4.41146 1.95599C4.45219 1.99687 4.46447 2.05839 4.44243 2.11183C4.42039 2.16512 4.36821 2.2 4.31045 2.2H3.55905V6.56037C4.82552 5.43397 6.43212 4.80339 8.13051 4.7699V4.02004C8.13051 3.96228 8.16538 3.91025 8.21868 3.88806C8.27197 3.86644 8.33363 3.8783 8.37437 3.9189L10.2915 5.83311C10.3183 5.85989 10.3334 5.8963 10.3334 5.93425C10.3334 5.97206 10.3183 6.00847 10.2915 6.03526L8.37437 7.9524C8.33363 7.99327 8.27169 8.00583 8.21868 7.98337C8.16538 7.96133 8.13051 7.90915 8.13051 7.85139V7.10502C5.81799 7.17449 3.86514 8.92227 3.55766 11.2247L3.55905 13.8571C3.55905 13.9361 3.49516 14 3.4162 14ZM1.51329 13.7143H3.27334V11.2058C3.60705 8.6957 5.75605 6.81721 8.27336 6.81721C8.35233 6.81721 8.41622 6.8811 8.41622 6.96006V7.50652L9.98849 5.93439L8.41622 4.36449V4.91137C8.41622 4.99033 8.35233 5.05422 8.27336 5.05422C6.48652 5.05422 4.79706 5.74201 3.51581 6.9909C3.47479 7.03108 3.41341 7.04265 3.36067 7.02033C3.30766 6.99801 3.27334 6.94611 3.27334 6.88864V2.05714C3.27334 1.97818 3.33723 1.91428 3.4162 1.91428H3.96531L2.39331 0.344659L0.821317 1.91428H1.37043C1.44939 1.91428 1.51329 1.97818 1.51329 2.05714V13.7143Z" fill="#AAAAAA"/>
</svg>
