<svg width="11" height="14" viewBox="0 0 11 14" fill="none" xmlns="http://www.w3.org/2000/svg">
<path d="M3.41607 14H1.37031C1.29134 14 1.22745 13.9361 1.22745 13.8571V2.2H0.476049C0.418292 2.2 0.366115 2.16512 0.344072 2.11183C0.32203 2.05839 0.334307 1.99687 0.375044 1.95599L2.29218 0.0416436C2.34799 -0.0138812 2.43839 -0.0138812 2.49419 0.0416436L4.41134 1.95599C4.45207 1.99687 4.46435 2.05839 4.44231 2.11183C4.42026 2.16512 4.36809 2.2 4.31033 2.2H3.55893V6.56037C4.8254 5.43397 6.43199 4.80339 8.13038 4.7699V4.02004C8.13038 3.96228 8.16526 3.91025 8.21855 3.88806C8.27185 3.86644 8.33351 3.8783 8.37425 3.9189L10.2914 5.83311C10.3182 5.85989 10.3332 5.8963 10.3332 5.93425C10.3332 5.97206 10.3182 6.00847 10.2914 6.03526L8.37425 7.9524C8.33351 7.99327 8.27157 8.00583 8.21855 7.98337C8.16526 7.96133 8.13038 7.90915 8.13038 7.85139V7.10502C5.81787 7.17449 3.86502 8.92227 3.55754 11.2247L3.55893 13.8571C3.55893 13.9361 3.49504 14 3.41607 14ZM1.51316 13.7143H3.27322V11.2058C3.60692 8.6957 5.75593 6.81721 8.27324 6.81721C8.3522 6.81721 8.4161 6.8811 8.4161 6.96006V7.50652L9.98837 5.93439L8.4161 4.36449V4.91137C8.4161 4.99033 8.3522 5.05422 8.27324 5.05422C6.4864 5.05422 4.79694 5.74201 3.51568 6.9909C3.47467 7.03108 3.41328 7.04265 3.36055 7.02033C3.30754 6.99801 3.27322 6.94611 3.27322 6.88864V2.05714C3.27322 1.97818 3.33711 1.91428 3.41607 1.91428H3.96518L2.39319 0.344659L0.821195 1.91428H1.37031C1.44927 1.91428 1.51316 1.97818 1.51316 2.05714V13.7143Z" fill="#AAAAAA"/>
</svg>
