<svg width="20" height="19" viewBox="0 0 20 19" fill="none" xmlns="http://www.w3.org/2000/svg">
<path d="M7.79772 18.0853C8.05873 18.3487 8.38499 18.4804 8.71126 18.4804C9.03752 18.4804 9.36378 18.3487 9.6248 18.0853C10.1468 17.5586 10.1468 16.7355 9.6248 16.2087L4.46982 10.9738H18.6949C19.4127 10.9738 20 10.3812 20 9.6569C20 8.93258 19.4127 8.33996 18.6949 8.33996H4.46982L9.65742 3.1051C10.1794 2.57833 10.1794 1.75524 9.65742 1.22846C9.1354 0.70168 8.31974 0.70168 7.79772 1.22846L0.391517 8.73504C-0.130506 9.26182 -0.130506 10.0849 0.391517 10.6117L7.79772 18.0853Z" fill="#D71921"/>
</svg>
