<svg width="24" height="24" viewBox="0 0 24 24" fill="none" xmlns="http://www.w3.org/2000/svg">
<path fill-rule="evenodd" clip-rule="evenodd" d="M17.5581 16.733L22.853 22.0279C23.3041 22.479 23.3041 23.2105 22.853 23.6616C22.4018 24.1128 21.6704 24.1128 21.2192 23.6616L15.8311 18.2736C14.1961 19.425 12.2023 20.1012 10.0506 20.1012C4.49981 20.1012 0 15.6014 0 10.0506C0 4.49981 4.49981 0 10.0506 0C15.6014 0 20.1012 4.49981 20.1012 10.0506C20.1012 12.6161 19.14 14.957 17.5581 16.733ZM10.0506 17.9062C14.3892 17.9062 17.9062 14.3892 17.9062 10.0506C17.9062 5.71205 14.3892 2.19496 10.0506 2.19496C5.71205 2.19496 2.19496 5.71205 2.19496 10.0506C2.19496 14.3892 5.71205 17.9062 10.0506 17.9062Z" fill="#D71921"/>
</svg>
