<svg width="20" height="20" viewBox="0 0 20 20" fill="none" xmlns="http://www.w3.org/2000/svg">
<path d="M14.1856 1.7222C16.9016 1.7222 19.1111 3.93176 19.1111 6.64798C19.1111 7.99176 18.5787 9.24776 17.6118 10.1846L17.6056 10.1909L17.5993 10.1971L10.0016 17.8566C8.37578 16.2084 4.05844 11.8355 2.39467 10.1909C1.42356 9.23109 0.888889 7.97287 0.888889 6.64798C0.888889 3.93198 3.09867 1.7222 5.81467 1.7222C7.15844 1.7222 8.41444 2.25465 9.35156 3.22154L9.98 3.86998L9.99644 3.85354L10.0167 3.87398L10.6487 3.22198C11.5856 2.25487 12.8416 1.7222 14.1856 1.7222ZM14.1856 0.833313C12.5467 0.833313 11.0671 1.51242 10.01 2.60331L9.99978 2.59309L9.98978 2.60309C8.93267 1.51242 7.45333 0.833535 5.81467 0.833535C2.60333 0.833313 0 3.43642 0 6.64798C0 8.28687 0.689555 9.75531 1.76978 10.8231C3.84778 12.8771 9.99978 19.1209 9.99978 19.1209L18.2302 10.8231C19.3209 9.7662 20 8.28665 20 6.64798C20 3.43642 17.3967 0.833313 14.1856 0.833313Z" fill="#AAAAAA"/>
</svg>
