<svg width="24" height="25" viewBox="0 0 24 25" fill="none" xmlns="http://www.w3.org/2000/svg">
<path fill-rule="evenodd" clip-rule="evenodd" d="M17.5581 16.8676L22.853 22.1771C23.3041 22.6295 23.3041 23.363 22.853 23.8154C22.4018 24.2678 21.6704 24.2678 21.2192 23.8154L15.8311 18.4124C14.1961 19.5671 12.2023 20.2451 10.0506 20.2451C4.49981 20.2451 0 15.7329 0 10.1667C0 4.60062 4.49981 0.0883789 10.0506 0.0883789C15.6014 0.0883789 20.1012 4.60062 20.1012 10.1667C20.1012 12.7393 19.14 15.0867 17.5581 16.8676ZM10.0506 18.0441C14.3892 18.0441 17.9062 14.5173 17.9062 10.1667C17.9062 5.81621 14.3892 2.2894 10.0506 2.2894C5.71205 2.2894 2.19496 5.81621 2.19496 10.1667C2.19496 14.5173 5.71205 18.0441 10.0506 18.0441Z" fill="#D71921"/>
</svg>
