<svg width="11" height="14" viewBox="0 0 11 14" fill="none" xmlns="http://www.w3.org/2000/svg">
<path d="M3.41614 14H1.37037C1.2914 14 1.22751 13.9361 1.22751 13.8571V2.2H0.47611C0.418353 2.2 0.366176 2.16512 0.344134 2.11183C0.322091 2.05839 0.334368 1.99687 0.375105 1.95599L2.29225 0.0416436C2.34805 -0.0138812 2.43845 -0.0138812 2.49426 0.0416436L4.4114 1.95599C4.45213 1.99687 4.46441 2.05839 4.44237 2.11183C4.42033 2.16512 4.36815 2.2 4.31039 2.2H3.55899V6.56037C4.82546 5.43397 6.43205 4.80339 8.13044 4.7699V4.02004C8.13044 3.96228 8.16532 3.91025 8.21861 3.88806C8.27191 3.86644 8.33357 3.8783 8.37431 3.91889L10.2914 5.83311C10.3182 5.85989 10.3333 5.8963 10.3333 5.93425C10.3333 5.97206 10.3182 6.00847 10.2914 6.03526L8.37431 7.9524C8.33357 7.99327 8.27163 8.00583 8.21861 7.98337C8.16532 7.96133 8.13044 7.90915 8.13044 7.85139V7.10502C5.81793 7.17449 3.86508 8.92227 3.5576 11.2247L3.55899 13.8571C3.55899 13.9361 3.4951 14 3.41614 14ZM1.51322 13.7143H3.27328V11.2058C3.60698 8.6957 5.75599 6.81721 8.2733 6.81721C8.35226 6.81721 8.41616 6.8811 8.41616 6.96007V7.50652L9.98843 5.93439L8.41616 4.36449V4.91137C8.41616 4.99033 8.35226 5.05422 8.2733 5.05422C6.48646 5.05422 4.797 5.74201 3.51575 6.9909C3.47473 7.03108 3.41335 7.04265 3.36061 7.02033C3.3076 6.99801 3.27328 6.94611 3.27328 6.88864V2.05714C3.27328 1.97818 3.33717 1.91428 3.41614 1.91428H3.96525L2.39325 0.344659L0.821256 1.91428H1.37037C1.44933 1.91428 1.51322 1.97818 1.51322 2.05714V13.7143Z" fill="#AAAAAA"/>
</svg>
