<svg width="16" height="16" viewBox="0 0 16 16" fill="none" xmlns="http://www.w3.org/2000/svg">
<path d="M11.3484 1.37774C13.5212 1.37774 15.2889 3.14538 15.2889 5.31836C15.2889 6.39338 14.8629 7.39818 14.0894 8.14769L14.0844 8.15267L14.0795 8.15765L8.00124 14.2853C6.70062 12.9667 3.24676 9.4684 1.91573 8.15267C1.13884 7.38485 0.711111 6.37827 0.711111 5.31836C0.711111 3.14556 2.47893 1.37774 4.65173 1.37774C5.72676 1.37774 6.73156 1.80369 7.48124 2.5772L7.984 3.09596L7.99716 3.0828L8.01333 3.09916L8.51893 2.57756C9.26844 1.80387 10.2732 1.37774 11.3484 1.37774ZM11.3484 0.666626C10.0373 0.666626 8.85369 1.20992 8.008 2.08263L7.99982 2.07445L7.99182 2.08245C7.14613 1.20991 5.96267 0.666804 4.65173 0.666804C2.08267 0.666626 0 2.74911 0 5.31836C0 6.62947 0.551644 7.80423 1.41582 8.65845C3.07822 10.3016 7.99982 15.2967 7.99982 15.2967L14.5842 8.65845C15.4567 7.81294 16 6.62929 16 5.31836C16 2.74911 13.9173 0.666626 11.3484 0.666626Z" fill="#AAAAAA"/>
</svg>
