<svg width="22" height="25" viewBox="0 0 22 25" fill="none" xmlns="http://www.w3.org/2000/svg">
<path fill-rule="evenodd" clip-rule="evenodd" d="M20.6525 10.3843H4.65878L20.0197 5.92362C20.1369 5.89072 20.24 5.80611 20.301 5.698C20.3619 5.58989 20.376 5.45828 20.3385 5.34076L19.5369 2.5581C19.2135 1.44409 18.1822 0.668518 17.0291 0.668518C16.7853 0.668518 16.5416 0.701421 16.3072 0.771928L1.88377 4.96003C1.21346 5.15275 0.665023 5.59929 0.327522 6.21505C-0.00997789 6.82611 -0.0896655 7.53117 0.102522 8.20334L0.890023 10.9202V22.1214C0.890023 23.5644 2.0619 24.7395 3.49627 24.7395H7.4994H9.12597H12.876H14.8447H18.5057C19.9447 24.7395 21.1166 23.5644 21.1166 22.1214V10.8544C21.1213 10.5959 20.9104 10.3843 20.6525 10.3843ZM16.9682 11.3244L14.976 14.784H12.3838L14.376 11.3244H16.9682ZM13.2932 11.3244L11.301 14.784H8.70878L10.701 11.3244H13.2932ZM9.62284 11.3244L7.63065 14.784H5.03846L7.03065 11.3244H9.62284ZM5.94784 11.3244L3.95565 14.784H1.82752V11.3244H5.94784ZM16.565 1.67441C16.715 1.63211 16.8697 1.60861 17.0244 1.60861C17.765 1.60861 18.426 2.10686 18.6322 2.81662L19.3072 5.14805L17.4275 5.6933C17.4088 5.6698 17.39 5.64159 17.3666 5.62279L14.0338 2.41238L16.565 1.67441ZM13.0025 2.70851C13.0213 2.73202 13.04 2.76022 13.0635 2.77902L16.3963 5.98943L13.8978 6.7133C13.8791 6.68979 13.8603 6.66159 13.8369 6.64279L10.5041 3.43238L13.0025 2.70851ZM9.47284 3.73321C9.49159 3.75671 9.51034 3.78492 9.53378 3.80372L12.8666 7.01412L10.3682 7.73799C10.3494 7.71449 10.3307 7.68629 10.3072 7.66749L6.9744 4.45708L9.47284 3.73321ZM5.94784 4.75791C5.96659 4.78141 5.98534 4.80961 6.00878 4.82842L9.34159 8.03882L6.84315 8.76739C6.8244 8.74389 6.80565 8.71569 6.78221 8.69689L3.4494 5.48648L5.94784 4.75791ZM1.00252 7.94011C0.880648 7.51237 0.93221 7.06113 1.14784 6.66629C1.36346 6.27145 1.71971 5.98943 2.14627 5.86251L2.42284 5.78261C2.44159 5.80611 2.46034 5.83431 2.48377 5.85311L5.81659 9.06352L1.67752 10.2668L1.00252 7.94011ZM20.1838 22.1167C20.1838 23.0427 19.4338 23.7947 18.5103 23.7947H14.8494H12.8807H9.13065H7.4994H3.49627C2.57752 23.7947 1.82752 23.0427 1.82752 22.1167V15.7241H4.22752H7.89784H11.5682H15.2385H20.1744V22.1167H20.1838ZM20.1838 14.784H16.0588L18.051 11.3244H20.1838V14.784Z" fill="#BABABA"/>
</svg>
