<svg width="24" height="24" viewBox="0 0 24 24" fill="none" xmlns="http://www.w3.org/2000/svg">
<path d="M22.4042 12.3109C22.3076 12.1133 22.3076 11.8867 22.4042 11.6892L23.2993 9.85802C23.7977 8.83844 23.4028 7.62322 22.4003 7.09133L20.5999 6.13602C20.4056 6.03299 20.2725 5.84962 20.2344 5.6331L19.8823 3.62551C19.6862 2.50773 18.6523 1.75661 17.5288 1.91556L15.5107 2.20103C15.2929 2.23178 15.0775 2.16175 14.9195 2.00889L13.4546 0.591773C12.639 -0.197316 11.3611 -0.197363 10.5455 0.591773L9.0806 2.00903C8.92254 2.16194 8.70715 2.23183 8.48937 2.20117L6.47127 1.9157C5.34745 1.75666 4.31386 2.50787 4.11778 3.62565L3.76566 5.63315C3.72764 5.84971 3.59447 6.03304 3.40027 6.13612L1.59981 7.09142C0.597346 7.62326 0.202472 8.83859 0.700845 9.85816L1.59592 11.6893C1.69248 11.8868 1.69248 12.1134 1.59592 12.311L0.700798 14.1421C0.202426 15.1617 0.597298 16.3769 1.59976 16.9088L3.40022 17.8641C3.59447 17.9671 3.72764 18.1505 3.76566 18.367L4.11778 20.3746C4.29628 21.3922 5.16881 22.1058 6.1716 22.1057C6.27036 22.1057 6.37058 22.0987 6.47131 22.0845L8.48941 21.799C8.70705 21.7681 8.92258 21.8383 9.08064 21.9912L10.5455 23.4083C10.9534 23.8029 11.4766 24.0001 12.0001 24.0001C12.5233 24 13.0469 23.8028 13.4546 23.4083L14.9195 21.9912C15.0776 21.8383 15.293 21.7685 15.5107 21.799L17.5288 22.0845C18.6528 22.2435 19.6862 21.4923 19.8823 20.3746L20.2345 18.367C20.2725 18.1505 20.4057 17.9672 20.5999 17.8641L22.4003 16.9088C23.4028 16.3769 23.7977 15.1616 23.2993 14.142L22.4042 12.3109ZM21.7515 15.686L19.9511 16.6413C19.3771 16.9459 18.9834 17.4877 18.8711 18.1278L18.519 20.1353C18.4526 20.5135 18.103 20.7675 17.7227 20.7139L15.7046 20.4284C15.061 20.3372 14.4242 20.5444 13.9571 20.9962L12.4921 22.4133C12.2162 22.6802 11.7839 22.6802 11.5079 22.4133L10.043 20.9962C9.64825 20.6143 9.13216 20.4073 8.59338 20.4073C8.49466 20.4073 8.39515 20.4143 8.29549 20.4284L6.27739 20.7138C5.89743 20.7675 5.54751 20.5135 5.48113 20.1353L5.12896 18.1277C5.01665 17.4876 4.623 16.9458 4.04892 16.6412L2.24846 15.6859C1.90928 15.506 1.77568 15.0948 1.94429 14.7499L2.83941 12.9187C3.12479 12.3348 3.12479 11.6652 2.83941 11.0813L1.94429 9.25015C1.77568 8.90519 1.90928 8.49406 2.24846 8.3141L4.04892 7.3588C4.62295 7.05416 5.01665 6.51238 5.12892 5.87226L5.48104 3.86471C5.54741 3.48652 5.89701 3.23246 6.2773 3.28618L8.2954 3.57165C8.93875 3.66272 9.57583 3.45568 10.0429 3.00385L11.5079 1.58674C11.7838 1.31983 12.2161 1.31983 12.4921 1.58674L13.957 3.00385C14.4241 3.45573 15.0611 3.66272 15.7045 3.57165L17.7226 3.28618C18.1026 3.23241 18.4525 3.48652 18.5189 3.86471L18.871 5.87231C18.9833 6.51243 19.377 7.05425 19.951 7.3588L21.7515 8.3141C22.0907 8.49406 22.2243 8.90519 22.0557 9.25015L21.1605 11.0813C20.8752 11.6651 20.8752 12.3348 21.1605 12.9187L22.0557 14.7498C22.2243 15.0948 22.0907 15.506 21.7515 15.686Z" fill="#AAAAAA"/>
</svg>
