<svg width="24" height="22" viewBox="0 0 24 22" fill="none" xmlns="http://www.w3.org/2000/svg">
<path d="M23.9825 7.61395L21.8506 0.313641C21.7963 0.127734 21.6259 0 21.4322 0H2.56777C2.37408 0 2.20369 0.127781 2.14941 0.313641L0.0174844 7.61395C0.00585938 7.65361 0 7.69477 0 7.73606V7.94573C0 9.04781 0.549797 10.0233 1.389 10.6143V19.3042C1.389 20.2904 2.19141 21.0928 3.17766 21.0928H20.8223C21.8086 21.0928 22.611 20.2904 22.611 19.3042V10.6143C23.4502 10.0233 24 9.04791 24 7.94578V7.73611C24 7.69477 23.9941 7.65361 23.9825 7.61395ZM12.4358 0.871687H16.5885L17.4016 7.54312C17.4879 8.25094 17.2663 8.96297 16.7936 9.49678C16.3209 10.0306 15.6409 10.3367 14.9279 10.3367C13.5538 10.3367 12.4358 9.21877 12.4358 7.84467V0.871687V0.871687ZM6.59831 7.54308L7.41141 0.871687H11.5642V7.84463C11.5642 9.21872 10.4462 10.3367 9.07205 10.3367C8.35903 10.3367 7.67906 10.0305 7.20637 9.49673C6.73373 8.96292 6.51206 8.25089 6.59831 7.54308ZM0.871688 7.94578V7.79841L2.89453 0.871687H6.5333L5.63588 8.23505C5.48986 9.43317 4.46958 10.3367 3.26255 10.3367C1.94423 10.3367 0.871688 9.26414 0.871688 7.94578ZM20.8223 20.2211H3.17766C2.67202 20.2211 2.26064 19.8097 2.26064 19.3041V11.0503C2.57653 11.1525 2.91305 11.2083 3.26255 11.2083C4.494 11.2083 5.58281 10.519 6.1373 9.48783C6.25383 9.69605 6.393 9.89302 6.55378 10.0747C7.1918 10.7951 8.10966 11.2083 9.07205 11.2083C10.3263 11.2083 11.4217 10.5178 12 9.49748C12.5783 10.5179 13.6737 11.2083 14.9279 11.2083C15.8902 11.2083 16.8081 10.7951 17.4461 10.0747C17.6069 9.89306 17.7461 9.69609 17.8626 9.48783C18.417 10.519 19.506 11.2083 20.7374 11.2083C21.0869 11.2083 21.4234 11.1525 21.7393 11.0503V19.3041H21.7393C21.7394 19.8097 21.328 20.2211 20.8223 20.2211ZM23.1283 7.94578C23.1283 9.26414 22.0558 10.3366 20.7374 10.3366C19.5303 10.3366 18.51 9.43313 18.364 8.235L17.4667 0.871687H21.1055L23.1283 7.79845V7.94578Z" fill="#AAAAAA"/>
</svg>
