<svg width="12" height="14" viewBox="0 0 12 14" fill="none" xmlns="http://www.w3.org/2000/svg">
<path d="M6.56223 12.753C7.13428 12.1854 7.70643 11.5577 8.2398 10.8886C9.47259 9.34196 10.3076 7.8164 10.5652 6.41144C10.62 6.11263 10.6479 5.82168 10.6479 5.53913C10.6479 2.83073 8.5565 0.608696 6.00331 0.608696C3.45012 0.608696 1.3587 2.83073 1.3587 5.53913C1.3587 5.82168 1.38657 6.11263 1.44137 6.41144C1.69903 7.8164 2.53402 9.34196 3.76682 10.8886C4.30019 11.5577 4.87233 12.1854 5.44439 12.753C5.64446 12.9515 5.83008 13.1281 5.99638 13.2807C6.17654 13.1281 6.36215 12.9515 6.56223 12.753ZM11.2566 5.53913C11.2566 5.85954 11.2252 6.18711 11.164 6.52124C10.8848 8.04341 10.0054 9.65002 8.71578 11.268C8.16656 11.957 7.5788 12.6018 6.99094 13.1851C6.78504 13.3894 6.59369 13.5715 6.42168 13.7293C6.31777 13.8246 6.2429 13.891 6.20188 13.9263C6.08774 14.0246 5.91888 14.0246 5.80473 13.9263C5.76372 13.891 5.68884 13.8246 5.58494 13.7293C5.41293 13.5715 5.22157 13.3894 5.01568 13.1851C4.42782 12.6018 3.84005 11.957 3.29084 11.268C2.00117 9.65002 1.12181 8.04341 0.842658 6.52124C0.781382 6.18711 0.75 5.85954 0.75 5.53913C0.75 2.50253 3.10542 0 6.00331 0C8.90119 0 11.2566 2.50253 11.2566 5.53913ZM6.00331 7.88658C4.54899 7.88658 3.37004 6.70762 3.37004 5.25331C3.37004 3.79899 4.54899 2.62004 6.00331 2.62004C7.45762 2.62004 8.63658 3.79899 8.63658 5.25331C8.63658 6.70762 7.45762 7.88658 6.00331 7.88658ZM6.00331 7.27788C7.12145 7.27788 8.02788 6.37145 8.02788 5.25331C8.02788 4.13517 7.12145 3.22873 6.00331 3.22873C4.88517 3.22873 3.97873 4.13517 3.97873 5.25331C3.97873 6.37145 4.88517 7.27788 6.00331 7.27788Z" fill="#AAAAAA"/>
</svg>
