<svg width="21" height="25" viewBox="0 0 21 25" fill="none" xmlns="http://www.w3.org/2000/svg">
<path fill-rule="evenodd" clip-rule="evenodd" d="M8.50909 2.9618C5.12137 3.83574 2.61818 6.91828 2.61818 10.5897V15.8401C2.61818 16.3238 2.22621 16.716 1.74636 16.716C0.781874 16.716 0 17.5016 0 18.4663C0 19.4329 0.782859 20.2166 1.74977 20.2166H19.1957C20.1621 20.2166 20.9455 19.431 20.9455 18.4663C20.9455 17.4996 20.1599 16.716 19.1991 16.716C18.7176 16.716 18.3273 16.3269 18.3273 15.8401V10.5897C18.3273 6.91973 15.8246 3.83604 12.4364 2.96184V2.05781C12.4364 0.967564 11.5572 0.0883789 10.4727 0.0883789C9.39045 0.0883789 8.50909 0.970125 8.50909 2.05781V2.9618ZM7.41818 21.0917H13.5273C13.5273 22.7833 12.1597 24.1547 10.4727 24.1547C8.78575 24.1547 7.41818 22.7833 7.41818 21.0917Z" fill="#D71921"/>
</svg>
