<svg width="24" height="22" viewBox="0 0 24 22" fill="none" xmlns="http://www.w3.org/2000/svg">
<path d="M23.9825 8.30625L21.8506 0.985772C21.7963 0.799352 21.6259 0.671265 21.4322 0.671265H2.56777C2.37408 0.671265 2.20369 0.799399 2.14941 0.985772L0.0174844 8.30625C0.00585938 8.34602 0 8.38729 0 8.4287V8.63895C0 9.74407 0.549797 10.7222 1.389 11.3149V20.0287C1.389 21.0177 2.19141 21.8223 3.17766 21.8223H20.8223C21.8086 21.8223 22.611 21.0177 22.611 20.0287V11.3149C23.4502 10.7223 24 9.74417 24 8.639V8.42874C24 8.38729 23.9941 8.34602 23.9825 8.30625ZM12.4358 1.54536H16.5885L17.4016 8.23523C17.4879 8.945 17.2663 9.65899 16.7936 10.1943C16.3209 10.7296 15.6409 11.0366 14.9279 11.0366C13.5538 11.0366 12.4358 9.9155 12.4358 8.53761V1.54536V1.54536ZM6.59831 8.23518L7.41141 1.54536H11.5642V8.53756C11.5642 9.91545 10.4462 11.0365 9.07205 11.0365C8.35903 11.0365 7.67906 10.7295 7.20637 10.1942C6.73373 9.65895 6.51206 8.94495 6.59831 8.23518ZM0.871688 8.639V8.49121L2.89453 1.54536H6.5333L5.63588 8.92906C5.48986 10.1305 4.46958 11.0365 3.26255 11.0365C1.94423 11.0365 0.871688 9.961 0.871688 8.639ZM20.8223 20.9483H3.17766C2.67202 20.9483 2.26064 20.5357 2.26064 20.0287V11.7521C2.57653 11.8546 2.91305 11.9106 3.26255 11.9106C4.494 11.9106 5.58281 11.2194 6.1373 10.1853C6.25383 10.3941 6.393 10.5916 6.55378 10.7738C7.1918 11.4962 8.10966 11.9106 9.07205 11.9106C10.3263 11.9106 11.4217 11.2181 12 10.195C12.5783 11.2182 13.6737 11.9106 14.9279 11.9106C15.8902 11.9106 16.8081 11.4962 17.4461 10.7738C17.6069 10.5917 17.7461 10.3941 17.8626 10.1853C18.417 11.2194 19.506 11.9106 20.7374 11.9106C21.0869 11.9106 21.4234 11.8546 21.7393 11.7521V20.0287H21.7393C21.7394 20.5357 21.328 20.9483 20.8223 20.9483ZM23.1283 8.639C23.1283 9.961 22.0558 11.0365 20.7374 11.0365C19.5303 11.0365 18.51 10.1304 18.364 8.92901L17.4667 1.54536H21.1055L23.1283 8.49126V8.639Z" fill="#BABABA"/>
</svg>
