<svg width="39" height="12" viewBox="0 0 39 12" fill="none" xmlns="http://www.w3.org/2000/svg">
<path d="M38.4352 3.543C38.0851 2.54863 37.132 1.83423 36.0136 1.83423H35.9941C35.2647 1.83423 34.6131 2.1335 34.1463 2.61621C33.6795 2.1335 33.0181 1.83423 32.2984 1.83423H32.279C31.6371 1.83423 31.0536 2.06593 30.6062 2.45209V2.25901C30.5867 2.06593 30.4311 1.91146 30.2269 1.91146H28.4957C28.2818 1.91146 28.1165 2.07558 28.1165 2.28797V11.5559C28.1165 11.7683 28.2818 11.9324 28.4957 11.9324H30.2172C30.4117 11.9324 30.5673 11.7876 30.5867 11.6041V4.95249C30.5867 4.93318 30.5867 4.90422 30.5867 4.88491C30.6159 4.58564 30.8299 4.34429 31.18 4.31532H31.2481H31.4329H31.5009C31.6468 4.32498 31.7635 4.3829 31.8608 4.45048C32.0067 4.56633 32.0942 4.74976 32.0942 4.95249L32.1039 11.5752C32.1039 11.7876 32.279 11.9517 32.4832 11.9517H34.2046C34.4089 11.9517 34.5742 11.7876 34.5839 11.5945V4.95249C34.5839 4.73045 34.6812 4.53737 34.866 4.42152C34.9535 4.36359 35.0605 4.32498 35.1869 4.31532H35.255H35.4398H35.5079C35.8774 4.34429 36.1011 4.62425 36.1011 4.95249L36.1108 11.5655C36.1108 11.7779 36.2859 11.942 36.4901 11.942H38.2115C38.4255 11.942 38.5908 11.7779 38.5908 11.5655V4.44083C38.5714 3.95812 38.513 3.75539 38.4352 3.543Z" fill="#17BAED"/>
<path d="M26.8035 1.93081H25.8212V0.347546C25.8212 0.154465 25.6656 0 25.4711 0C25.4517 0 25.4225 0 25.403 0.00965406C24.3138 0.30893 24.5277 1.80531 22.5437 1.93081H22.4951H22.3492C22.3201 1.93081 22.2909 1.93081 22.2617 1.94047C22.0964 1.97908 21.9602 2.12389 21.9602 2.30732V4.01609C21.9602 4.22848 22.1353 4.3926 22.3395 4.3926H23.3801V11.6235C23.3801 11.8262 23.5455 12 23.7594 12H25.4614C25.6656 12 25.8407 11.8359 25.8407 11.6235V4.3926H26.8035C27.0175 4.3926 27.1828 4.21883 27.1828 4.01609V2.30732C27.1828 2.09493 27.0078 1.93081 26.8035 1.93081Z" fill="#17BAED"/>
<path d="M20.6181 1.93079H18.8967C18.6827 1.93079 18.5174 2.10456 18.5174 2.30729V5.83103C18.5174 6.05307 18.3326 6.22684 18.1187 6.22684H17.399C17.1753 6.22684 17.0002 6.05307 17.0002 5.83103L16.9905 2.30729C16.9905 2.09491 16.8154 1.93079 16.6112 1.93079H14.8898C14.6758 1.93079 14.5105 2.10456 14.5105 2.30729V6.17857C14.5105 7.64599 15.5609 8.69828 17.0489 8.69828C17.0489 8.69828 18.1576 8.69828 18.1965 8.70794C18.4007 8.72724 18.5563 8.90102 18.5563 9.10375C18.5563 9.30649 18.4007 9.47061 18.2062 9.49957C18.1965 9.49957 18.1867 9.49957 18.177 9.50922L15.6678 9.51888C15.4539 9.51888 15.2885 9.69265 15.2885 9.89539V11.5848C15.2885 11.7972 15.4539 11.9614 15.6678 11.9614H18.4785C19.9568 11.9614 21.0169 10.9187 21.0169 9.44165V2.30729C20.9974 2.09491 20.8321 1.93079 20.6181 1.93079Z" fill="#223368"/>
<path d="M4.13335 1.93079H0.36957C0.165334 1.93079 0 2.09491 0 2.29764V3.96779V3.97745C0 3.9871 0 3.99676 0 3.99676V9.36441V11.5655C0 11.7683 0.155608 11.942 0.350119 11.942H0.379295H2.10071C2.31467 11.942 2.48001 11.7779 2.48001 11.5655L2.48973 8.97825H4.13335C5.51437 8.97825 6.46747 8.03215 6.46747 6.66128V4.25741C6.46747 2.87688 5.50465 1.93079 4.13335 1.93079ZM3.97774 5.0587V5.85033V6.11099C3.97774 6.33304 3.79295 6.50681 3.57899 6.50681H2.48973V4.40223H3.57899C3.80268 4.40223 3.97774 4.576 3.97774 4.79804V5.0587Z" fill="#223368"/>
<path d="M10.8343 1.94043H8.45158C8.23762 1.94043 8.07229 2.09489 8.07229 2.29763V2.96376V2.97341V2.98307V3.89055C8.07229 4.09329 8.25707 4.26706 8.48076 4.26706H10.7565C10.9316 4.29602 11.0775 4.42152 11.0969 4.62426V4.8463C11.0775 5.03938 10.9316 5.18419 10.7663 5.19385H9.62837C8.13064 5.19385 7.07056 6.17856 7.07056 7.56875V9.49956V9.55749C7.07056 10.938 7.98476 11.9131 9.47276 11.9131H12.5849C13.149 11.9131 13.5964 11.4883 13.5964 10.9766V4.49876C13.6061 2.9348 12.7892 1.94043 10.8343 1.94043ZM11.1067 9.06513V9.33544C11.1067 9.35475 11.1067 9.37406 11.0969 9.39337C11.0969 9.41267 11.0872 9.43198 11.0775 9.45129C11.0288 9.5961 10.8732 9.71195 10.6982 9.71195H9.97849C9.7548 9.71195 9.57002 9.54783 9.57002 9.33544V9.01686V9.0072V8.14799V8.05145V7.87768C9.57002 7.67494 9.7548 7.50117 9.97849 7.50117H10.6982C10.9219 7.50117 11.1067 7.66529 11.1067 7.87768V9.06513Z" fill="#223368"/>
</svg>
