<svg width="21" height="15" viewBox="0 0 21 15" fill="none" xmlns="http://www.w3.org/2000/svg">
<path d="M19.8352 15H1.16478C0.521379 15 0 14.4857 0 13.8511V1.14893C0 0.514286 0.521379 0 1.16478 0H19.8352C20.4786 0 21 0.514286 21 1.14893V13.8511C21 14.4857 20.4786 15 19.8352 15Z" fill="#F0C41B"/>
<path d="M21 1.78577H0V4.64291H21V1.78577Z" fill="#806F5E"/>
<path d="M5.43099 7.14275H2.17237C1.97251 7.14275 1.8103 6.98275 1.8103 6.78561C1.8103 6.58847 1.97251 6.42847 2.17237 6.42847H5.43099C5.63085 6.42847 5.79306 6.58847 5.79306 6.78561C5.79306 6.98275 5.63085 7.14275 5.43099 7.14275Z" fill="#F9EAB0"/>
<path d="M10.138 7.14275H6.8794C6.67954 7.14275 6.51733 6.98275 6.51733 6.78561C6.51733 6.58847 6.67954 6.42847 6.8794 6.42847H10.138C10.3379 6.42847 10.5001 6.58847 10.5001 6.78561C10.5001 6.98275 10.3379 7.14275 10.138 7.14275Z" fill="#F9EAB0"/>
<path d="M2.53444 8.92852H2.17237C1.97251 8.92852 1.8103 8.76852 1.8103 8.57138C1.8103 8.37423 1.97251 8.21423 2.17237 8.21423H2.53444C2.7343 8.21423 2.89651 8.37423 2.89651 8.57138C2.89651 8.76852 2.7343 8.92852 2.53444 8.92852Z" fill="#F9EAB0"/>
<path d="M4.70681 8.92852H3.98267C3.78281 8.92852 3.62061 8.76852 3.62061 8.57138C3.62061 8.37423 3.78281 8.21423 3.98267 8.21423H4.70681C4.90667 8.21423 5.06888 8.37423 5.06888 8.57138C5.06888 8.76852 4.90667 8.92852 4.70681 8.92852Z" fill="#F9EAB0"/>
<path d="M6.51711 8.92852H6.15504C5.95518 8.92852 5.79297 8.76852 5.79297 8.57138C5.79297 8.37423 5.95518 8.21423 6.15504 8.21423H6.51711C6.71697 8.21423 6.87918 8.37423 6.87918 8.57138C6.87918 8.76852 6.71697 8.92852 6.51711 8.92852Z" fill="#F9EAB0"/>
<path d="M8.68972 8.92852H7.96558C7.76572 8.92852 7.60352 8.76852 7.60352 8.57138C7.60352 8.37423 7.76572 8.21423 7.96558 8.21423H8.68972C8.88958 8.21423 9.05179 8.37423 9.05179 8.57138C9.05179 8.76852 8.88958 8.92852 8.68972 8.92852Z" fill="#F9EAB0"/>
<path d="M10.1379 8.92857C10.0438 8.92857 9.94967 8.88929 9.88088 8.825C9.81571 8.75714 9.77588 8.66786 9.77588 8.57143C9.77588 8.47857 9.81571 8.38571 9.88088 8.31786C10.0148 8.18571 10.2574 8.18571 10.395 8.31786C10.4602 8.38571 10.5 8.47857 10.5 8.57143C10.5 8.66429 10.4602 8.75714 10.395 8.825C10.3262 8.88929 10.2321 8.92857 10.1379 8.92857Z" fill="#F9EAB0"/>
<path d="M16.6551 11.0713C16.6551 12.2549 15.6826 13.2142 14.4827 13.2142C13.2828 13.2142 12.3103 12.2549 12.3103 11.0713C12.3103 9.88775 13.2828 8.92847 14.4827 8.92847C15.6826 8.92847 16.6551 9.88775 16.6551 11.0713Z" fill="#DB2215"/>
<path d="M19.1896 11.0713C19.1896 12.2549 18.217 13.2142 17.0171 13.2142C15.8172 13.2142 14.8447 12.2549 14.8447 11.0713C14.8447 9.88775 15.8172 8.92847 17.0171 8.92847C18.217 8.92847 19.1896 9.88775 19.1896 11.0713Z" fill="#245EA9"/>
</svg>
